<svg width="34" height="34" viewBox="0 0 34 34" fill="none" xmlns="http://www.w3.org/2000/svg">
<path d="M32.5516 7.1881C32.9479 7.1881 33.2692 6.86683 33.2692 6.47052C33.2692 6.0742 32.9479 5.75293 32.5516 5.75293C32.1553 5.75293 31.834 6.0742 31.834 6.47052C31.834 6.86683 32.1553 7.1881 32.5516 7.1881Z" fill="#F89500"/>
<path d="M8.93778 11.8653L7.17383 12.9869L9.32778 16.3745L12.9642 14.0625L10.8102 10.6748L8.96633 11.8473C8.95704 11.8539 8.94747 11.8597 8.93778 11.8653Z" fill="#F89500"/>
<path d="M2.79029 12.0657C2.7049 12.4493 2.77538 12.8511 2.98623 13.1827C3.19708 13.5143 3.53103 13.7486 3.91462 13.8341L4.20435 13.8986L6.40691 12.5179C6.4314 12.5026 6.45747 12.4901 6.48467 12.4804L7.7784 11.6579L4.55876 10.9414C4.17519 10.8564 3.77358 10.9271 3.44204 11.1378C3.11051 11.3486 2.87612 11.6823 2.79029 12.0657Z" fill="#F89500"/>
<path d="M12.1031 5.05495C11.7195 4.96955 11.3177 5.04002 10.9861 5.25087C10.6544 5.46172 10.4201 5.79568 10.3347 6.17928L9.33545 10.6676L10.6464 9.83408C10.6668 9.81341 10.6894 9.79504 10.7138 9.77929L12.8993 8.39319L13.2264 6.82846C13.3126 6.44433 13.2426 6.0417 13.032 5.70912C12.8213 5.37654 12.4872 5.14123 12.1031 5.05495Z" fill="#F89500"/>
<path d="M17.6131 6.90721C17.4972 6.88134 17.3788 6.86825 17.2601 6.86816C16.955 6.86835 16.6564 6.95577 16.3994 7.12011L11.4824 10.2464L13.6364 13.6341L19.9118 9.64401L18.6216 7.6149C18.5086 7.43613 18.3613 7.28154 18.1882 7.16006C18.0151 7.03859 17.8197 6.95265 17.6131 6.90721Z" fill="#F89500"/>
<path d="M6.50099 13.4141L1.47636 16.6088C1.11644 16.8382 0.86222 17.2011 0.769473 17.6177C0.676727 18.0344 0.753028 18.4708 0.981637 18.8312L2.27171 20.8603L8.65501 16.8017L6.50099 13.4141Z" fill="#F89500"/>
<path d="M15.8599 32.5527H21.0173C21.4441 32.5522 21.8534 32.3824 22.1552 32.0806C22.457 31.7788 22.6268 31.3696 22.6273 30.9428V20.5508H15.8599V32.5527Z" fill="#F89500"/>
<path d="M4.55977 30.9428C4.56026 31.3696 4.73004 31.7788 5.03186 32.0806C5.33368 32.3824 5.74289 32.5522 6.16972 32.5527H9.99824V20.5508H4.55957L4.55977 30.9428Z" fill="#F89500"/>
<path d="M10.7954 20.5508H15.0629V32.5526H10.7954V20.5508Z" fill="#F89500"/>
<path d="M27.481 16.1347L27.6716 15.0235C27.6841 14.9502 27.6759 14.8748 27.6479 14.806C27.6199 14.7371 27.5732 14.6774 27.513 14.6337C27.4529 14.59 27.3817 14.564 27.3076 14.5587C27.2334 14.5533 27.1592 14.5688 27.0934 14.6034L26.0955 15.128L25.0975 14.6034C25.0317 14.5688 24.9575 14.5533 24.8834 14.5586C24.8092 14.564 24.738 14.59 24.6778 14.6337C24.6177 14.6774 24.5709 14.7371 24.5429 14.8059C24.5149 14.8748 24.5067 14.9502 24.5193 15.0235L24.71 16.1347L23.9025 16.9217C23.8493 16.9736 23.8116 17.0393 23.7938 17.1115C23.776 17.1837 23.7788 17.2594 23.8017 17.3301C23.8247 17.4008 23.867 17.4637 23.9239 17.5116C23.9807 17.5595 24.0498 17.5906 24.1234 17.6013L25.239 17.7635L25.738 18.7745C25.7709 18.8412 25.8218 18.8973 25.8849 18.9366C25.9481 18.9759 26.021 18.9967 26.0953 18.9967C26.1697 18.9967 26.2426 18.9759 26.3057 18.9366C26.3689 18.8973 26.4198 18.8412 26.4527 18.7745L26.9516 17.7635L28.0672 17.6013C28.1408 17.5906 28.2099 17.5595 28.2667 17.5116C28.3236 17.4637 28.3658 17.4008 28.3888 17.3301C28.4118 17.2594 28.4145 17.1837 28.3967 17.1115C28.3789 17.0393 28.3412 16.9736 28.288 16.9217L27.481 16.1347Z" fill="#F89500"/>
<path d="M32.0635 10.6446L30.9678 10.3783L30.566 9.3249C30.5395 9.25542 30.4941 9.19474 30.4349 9.14971C30.3758 9.10469 30.3052 9.07712 30.2311 9.07013C30.1571 9.06313 30.0826 9.07699 30.016 9.11014C29.9495 9.14329 29.8935 9.1944 29.8545 9.2577L29.2628 10.2175L28.1367 10.274C28.0625 10.2778 27.9907 10.3022 27.9297 10.3446C27.8686 10.387 27.8206 10.4456 27.791 10.5138C27.7615 10.582 27.7517 10.6572 27.7626 10.7307C27.7736 10.8042 27.8049 10.8732 27.853 10.9299L28.5829 11.7893L28.2892 12.8776C28.2698 12.9494 28.2709 13.0252 28.2923 13.0964C28.3137 13.1676 28.3546 13.2314 28.4104 13.2806C28.4662 13.3297 28.5346 13.3623 28.6079 13.3746C28.6813 13.3869 28.7566 13.3785 28.8253 13.3502L29.8679 12.9216L30.8123 13.5376C30.8746 13.5783 30.9469 13.6007 31.0213 13.6023C31.0956 13.6039 31.1689 13.5847 31.2329 13.5468C31.2969 13.509 31.349 13.454 31.3833 13.388C31.4177 13.3221 31.4329 13.2479 31.4273 13.1737L31.3419 12.0496L32.2195 11.3419C32.2774 11.2952 32.321 11.2333 32.3455 11.1631C32.37 11.0929 32.3744 11.0173 32.3582 10.9448C32.3419 10.8722 32.3057 10.8057 32.2537 10.7526C32.2016 10.6996 32.1357 10.6622 32.0635 10.6446Z" fill="#F89500"/>
<path d="M29.9788 3.32368C29.9626 3.25113 29.9264 3.18456 29.8743 3.1315C29.8222 3.07845 29.7564 3.04102 29.6841 3.02346L28.5884 2.75717L28.1867 1.70377C28.1602 1.63429 28.1148 1.57361 28.0556 1.52859C27.9964 1.48357 27.9258 1.45601 27.8518 1.44903C27.7778 1.44204 27.7033 1.45591 27.6367 1.48906C27.5701 1.52222 27.5142 1.57333 27.4752 1.63663L26.8835 2.5964L25.7574 2.65298C25.6831 2.6567 25.6114 2.68113 25.5503 2.72349C25.4892 2.76586 25.4412 2.82447 25.4117 2.8927C25.3821 2.96093 25.3723 3.03606 25.3833 3.1096C25.3942 3.18313 25.4255 3.25214 25.4736 3.30881L26.2039 4.16817L25.9098 5.25663C25.8904 5.32841 25.8915 5.40417 25.9129 5.47537C25.9343 5.54656 25.9752 5.61035 26.031 5.6595C26.0868 5.70866 26.1552 5.74123 26.2285 5.75353C26.3018 5.76583 26.3771 5.75738 26.4459 5.72912L27.4885 5.30053L28.4328 5.91671C28.4951 5.95733 28.5675 5.97972 28.6418 5.98135C28.7161 5.98297 28.7894 5.96377 28.8534 5.92591C28.9174 5.88805 28.9695 5.83304 29.0039 5.7671C29.0382 5.70117 29.0534 5.62694 29.0478 5.55281L28.9624 4.42848L29.84 3.72079C29.8979 3.67414 29.9416 3.61222 29.9661 3.54205C29.9906 3.47187 29.995 3.39623 29.9788 3.32368Z" fill="#F89500"/>
<path d="M23.1213 15.631C21.1907 15.1533 19.801 15.6727 18.975 16.1926C18.0758 16.7587 17.636 17.4447 17.6176 17.4737C17.561 17.5629 17.5422 17.671 17.5653 17.7741C17.5884 17.8772 17.6515 17.967 17.7408 18.0235C17.83 18.0801 17.9381 18.0989 18.0412 18.0759C18.1443 18.0528 18.234 17.9896 18.2906 17.9004C18.3504 17.8074 19.7919 15.6284 22.9297 16.4045C22.9807 16.4176 23.0337 16.4205 23.0858 16.413C23.1379 16.4055 23.188 16.3878 23.2332 16.3608C23.2784 16.3338 23.3178 16.2982 23.3492 16.2559C23.3805 16.2136 23.4031 16.1655 23.4158 16.1144C23.4284 16.0633 23.4308 16.0102 23.4228 15.9582C23.4149 15.9062 23.3966 15.8562 23.3692 15.8113C23.3418 15.7663 23.3058 15.7273 23.2632 15.6963C23.2207 15.6654 23.1724 15.6432 23.1212 15.631H23.1213Z" fill="#F89500"/>
<path d="M18.7294 14.2288C18.7057 14.2757 18.6915 14.3269 18.6876 14.3793C18.6837 14.4317 18.6903 14.4844 18.7069 14.5343C18.7235 14.5842 18.7497 14.6303 18.7842 14.6699C18.8187 14.7096 18.8607 14.7421 18.9078 14.7655C18.9549 14.7888 19.0061 14.8027 19.0586 14.8061C19.111 14.8096 19.1636 14.8027 19.2134 14.7857C19.2632 14.7688 19.3091 14.7422 19.3485 14.7074C19.3879 14.6726 19.4201 14.6304 19.4431 14.5832C19.8822 13.7833 20.4796 13.0812 21.1989 12.5197C22.7454 11.3292 24.5409 11.145 26.5354 11.9731C26.5837 11.9931 26.6355 12.0035 26.6878 12.0035C26.7402 12.0035 26.792 11.9933 26.8403 11.9733C26.8887 11.9533 26.9326 11.924 26.9697 11.887C27.0067 11.85 27.0361 11.8061 27.0561 11.7578C27.0762 11.7094 27.0865 11.6576 27.0866 11.6053C27.0866 11.553 27.0763 11.5012 27.0563 11.4528C27.0363 11.4044 27.007 11.3605 26.97 11.3235C26.9331 11.2865 26.8892 11.2571 26.8408 11.237C24.0044 10.0598 21.9428 10.9414 20.7129 11.8883C19.8969 12.5228 19.2215 13.3198 18.7294 14.2288Z" fill="#F89500"/>
<path d="M22.5595 8.76377C22.4589 8.73129 22.3496 8.74009 22.2555 8.78824C22.1614 8.83638 22.0903 8.91993 22.0579 9.02049C22.0254 9.12106 22.0342 9.23041 22.0823 9.32448C22.1305 9.41855 22.214 9.48965 22.3146 9.52213C22.8631 9.68375 23.432 9.76595 24.0038 9.76624C24.6701 9.76624 25.4397 9.64591 26.1298 9.23691C27.0329 8.70181 27.6121 7.79012 27.852 6.52754C27.8618 6.47613 27.8613 6.42331 27.8507 6.37208C27.84 6.32085 27.8194 6.27222 27.79 6.22896C27.7605 6.1857 27.7229 6.14867 27.6791 6.11997C27.6354 6.09127 27.5864 6.07147 27.535 6.0617C27.4836 6.05193 27.4307 6.05237 27.3795 6.06302C27.3283 6.07366 27.2797 6.09429 27.2364 6.12373C27.1931 6.15317 27.1561 6.19084 27.1274 6.23459C27.0987 6.27834 27.0789 6.32732 27.0691 6.37872C26.874 7.40543 26.4225 8.13583 25.727 8.54961C24.4041 9.33626 22.5882 8.77293 22.5595 8.76377Z" fill="#F89500"/>
<path d="M16.7918 19.316C17.1881 19.316 17.5094 18.9948 17.5094 18.5984C17.5094 18.2021 17.1881 17.8809 16.7918 17.8809C16.3955 17.8809 16.0742 18.2021 16.0742 18.5984C16.0742 18.9948 16.3955 19.316 16.7918 19.316Z" fill="#F89500"/>
<path d="M22.4373 6.30041C22.8336 6.30041 23.1549 5.97913 23.1549 5.58282C23.1549 5.18651 22.8336 4.86523 22.4373 4.86523C22.041 4.86523 21.7197 5.18651 21.7197 5.58282C21.7197 5.97913 22.041 6.30041 22.4373 6.30041Z" fill="#F89500"/>
<path d="M15.7806 15.9928C16.1769 15.9928 16.4982 15.6715 16.4982 15.2752C16.4982 14.8789 16.1769 14.5576 15.7806 14.5576C15.3843 14.5576 15.063 14.8789 15.063 15.2752C15.063 15.6715 15.3843 15.9928 15.7806 15.9928Z" fill="#F89500"/>
<path d="M31.3704 17.1608C31.7667 17.1608 32.088 16.8395 32.088 16.4432C32.088 16.0469 31.7667 15.7256 31.3704 15.7256C30.9741 15.7256 30.6528 16.0469 30.6528 16.4432C30.6528 16.8395 30.9741 17.1608 31.3704 17.1608Z" fill="#F89500"/>
</svg>
